<svg xmlns="http://www.w3.org/2000/svg" width="26" height="26" viewBox="0 0 26 26">
    <path fill="#1DA1F2" fill-rule="nonzero" d="M24.266 7.719c-.204 9.062-6.094 15.365-15.032 15.76-3.656.196-6.297-.986-8.734-2.364 2.64.394 6.094-.591 7.922-2.167-2.64-.197-4.266-1.576-5.078-3.743.812.197 1.625 0 2.234 0-2.437-.788-4.062-2.167-4.266-5.32.61.395 1.422.592 2.235.592C1.719 9.492.5 5.749 1.922 3.385c2.64 2.758 5.89 5.122 11.172 5.516-1.422-5.516 6.297-8.47 9.344-4.728 1.421-.197 2.437-.788 3.453-1.182-.407 1.38-1.22 2.167-2.235 2.955 1.016-.197 2.032-.394 2.844-.788-.203.985-1.219 1.773-2.234 2.561z"/>
</svg>
