<svg xmlns="http://www.w3.org/2000/svg" width="86" height="86" viewBox="0 0 86 86">
    <g fill="none" fill-rule="nonzero">
        <path fill="#FFCD34" d="M16.034 49.56a7.288 7.288 0 1 1-14.577-.001 7.288 7.288 0 0 1 14.577 0zM36.44 56.847a7.288 7.288 0 1 1-14.576 0 7.288 7.288 0 0 1 14.577 0z"/>
        <path fill="#008FCF" d="M20.407 77.254a7.288 7.288 0 1 1-14.577 0 7.288 7.288 0 0 1 14.577 0z"/>
        <g fill="#226C8A">
            <path d="M10.203 49.56a1.458 1.458 0 1 1-2.915 0 1.458 1.458 0 0 1 2.915 0zM30.61 56.847a1.458 1.458 0 1 1-2.915 0 1.458 1.458 0 0 1 2.915 0zM14.576 77.254a1.458 1.458 0 1 1-2.915 0 1.458 1.458 0 0 1 2.915 0z"/>
        </g>
        <path fill="#4D4D4D" d="M13.11 86h-.083c-7.196-.46-8.8-5.976-8.654-8.825a8.835 8.835 0 0 1 5.045-7.846l21.519-6.93a6.398 6.398 0 0 0 3.662-3.451 6.78 6.78 0 0 0-.225-4.685 5.868 5.868 0 0 0-7.434-2.815L12.279 57.56a9.181 9.181 0 0 1-8.79-1.02A9.15 9.15 0 0 1 0 49.56l2.373-30.728 2.907.228-2.365 30.612a6.332 6.332 0 0 0 2.303 4.53 6.268 6.268 0 0 0 5.938.669l14.695-6.122a8.816 8.816 0 0 1 11.114 4.185 9.662 9.662 0 0 1 .365 7.044 9.266 9.266 0 0 1-5.369 5.15l-21.427 6.9a5.958 5.958 0 0 0-3.246 5.245c-.025.598-.05 5.393 5.84 5.809l55.637-2.955.146 2.916L13.11 86zM23.417 8.197l.174-2.91 25.55 1.53-.174 2.91zM78.712 65.294l-.554-19.223 2.913-.11.553 19.223z"/>
        <path fill="#53A2AB" d="M17.783 2.196L19.94.51l3.895 1.614.335 2.72 2.107 2.107 2.72.337 1.614 3.893-1.687 2.159v2.986l1.687 2.156-1.613 3.894-2.72.335-2.108 2.108-.335 2.72-3.895 1.614-2.156-1.687h-2.985l-2.16 1.687-3.892-1.614-.335-2.72L6.3 22.71l-2.72-.335-1.613-3.894 1.686-2.156V13.34l-1.686-2.159L3.58 7.288l2.72-.335L8.41 4.844l.337-2.72L12.639.51l2.159 1.686z"/>
        <path fill="#FFCD34" d="M22.344 14.831a6.055 6.055 0 1 1-12.11 0 6.055 6.055 0 0 1 12.11 0z"/>
        <path fill="#008FCF" d="M60.809 9.21l4.586-4.837 4.039 1.312.866 6.61 2.76 2.006 6.56-1.219 2.495 3.436-3.189 5.857 1.056 3.246L86 28.486v4.248l-6.018 2.865-1.056 3.247 3.185 5.856-2.495 3.436-6.56-1.218-2.76 2.005-.862 6.61-4.04 1.312-4.585-4.837h-3.414l-4.585 4.837-4.04-1.311-.865-6.61-2.76-2.006-6.56 1.218-2.496-3.436 3.185-5.856-1.055-3.247-6.019-2.865v-4.248l6.02-2.865 1.054-3.246-3.185-5.857 2.496-3.436 6.56 1.219 2.76-2.006.866-6.61 4.039-1.312 4.585 4.838z"/>
        <path fill="#E2C675" d="M80.236 64.408l4.624 1.312 1.008 3.028-2.916 3.822-.336 1.64 1.166 4.665-2.111 2.385-4.767-.614-1.59.53-3.45 3.352-3.125-.642-1.853-4.445-1.254-1.114-4.623-1.312-1.007-3.028 2.915-3.82.337-1.642-1.166-4.665 2.117-2.386 4.767.614 1.59-.53 3.45-3.352 3.126.641 1.852 4.436z"/>
        <path fill="#53A2AB" d="M78.712 71.424a5.83 5.83 0 1 1-11.662 0 5.83 5.83 0 0 1 11.662 0z"/>
        <path fill="#FFCD34" d="M71.424 30.61c0 7.246-5.873 13.119-13.119 13.119-7.245 0-13.119-5.873-13.119-13.119 0-7.245 5.874-13.118 13.12-13.118 7.245 0 13.118 5.873 13.118 13.118z"/>
        <path fill="#53A2AB" d="M65.593 30.61a7.288 7.288 0 1 1-14.577 0 7.288 7.288 0 0 1 14.577 0z"/>
        <path fill="#FBCC34" d="M86 2.915a2.915 2.915 0 1 1-5.83 0 2.915 2.915 0 0 1 5.83 0zM39.356 1.458a1.458 1.458 0 1 1-2.915 0 1.458 1.458 0 0 1 2.915 0z"/>
    </g>
</svg>
