<svg xmlns="http://www.w3.org/2000/svg" width="86" height="86" viewBox="0 0 86 86">
    <g fill="none" fill-rule="nonzero">
        <path fill="#06AAE9" d="M32.206 21.5C14.721 21.5.545 35.617.545 53.032s14.174 31.535 31.66 31.535a31.728 31.728 0 0 0 22.389-9.237L32.206 53.033V21.5z"/>
        <path fill="#ED1C24" d="M60.35 20.703a31.617 31.617 0 0 0-22.387-9.236V43L60.35 20.703z"/>
        <path fill="#F8CF26" d="M61.79 28.505L39.402 50.803 61.79 73.1c12.365-12.314 12.365-32.28 0-44.595z"/>
        <g fill="#29485A">
            <path d="M47.893 22.14l-2.576-1.28L55.39.792c.243-.483.738-.79 1.281-.793h11.513v2.867H57.561L47.893 22.14zM69.624 77.4h15.831v2.867h-15.83zM69.624 83.133h15.831V86h-15.83zM78.26 73.1H75.38V59.824l-17.693-5.42.846-2.741 18.71 5.733a1.434 1.434 0 0 1 1.015 1.37V73.1zM.545 1.433h18.709V4.3H.545zM.545 7.167h18.709v2.866H.545zM.545 12.9h10.074v2.867H.545zM15.262 46.774L2.309 31.007a1.43 1.43 0 0 1-.325-.907V20.067h2.878v9.521L17.49 44.96l-2.228 1.815zM72.503 0h12.952v2.867H72.503zM72.503 5.733h12.952V8.6H72.503zM72.503 11.467h7.195v2.866h-7.195z"/>
        </g>
    </g>
</svg>
